:SAMPLES-PER-SECOND 30
:FULLY-SPECIFIED
:DEGREES
182
root  -39.5048 39.3375 -0.902949 -169.124 -85.5653 173.06
RightUpLeg  -14.4807 -6.80476 -4.78656
RightLeg  23.7103 0.579355 0.0263686
RightFoot  -13.768 -0.0333713 2.8239
RightToes  -3.31784e-009 0 -3.6325e-017
Spine  27.7464 -0.121787 7.97851
Spine1  2.48474 1.7775 -0.576288
HEad  -31.8775 14.2348 -8.48308
LeftShoulder1  -0.118409 3.82733 -30.7575
LeftArm  3.2029 21.3351 -35.3836
LeftForeArm  28.606 -12.9256 -8.08653
LeftHand  -0.182873 11.1753 -2.32298
RightShoulder  -0.657919 -5.40305 27.8948
RightArm  17.0397 -21.6373 36.924
RightForeArm  10.0371 16.6474 4.80138
RightHand  -0.225588 5.94523 -2.66484
LeftUpLeg  -25.6616 6.21192 9.11678
LeftLeg  44.4741 6.61283 7.27129
LeftFoot  8.84945 -0.0525807 0.0567791
LeftToes  1.28511e-009 -3.60458e-011 6.16399e-011
183
root  -40.1779 39.335 -0.919978 -176.741 -85.7897 179.981
RightUpLeg  -12.0841 -7.7812 -4.49306
RightLeg  22.9276 1.3928 0.297403
RightFoot  -14.4715 -0.01772 2.9443
RightToes  -3.31784e-009 0 -3.6325e-017
Spine  25.274 -0.304562 10.2451
Spine1  3.65899 2.20968 -1.73657
HEad  -31.4972 10.6405 -11.4474
LeftShoulder1  -0.280658 4.26481 -30.6534
LeftArm  2.94662 25.7604 -34.4615
LeftForeArm  28.0202 -13.9169 -7.38373
LeftHand  -0.214156 11.1232 -2.9706
RightShoulder  -0.859713 -5.92 29.0123
RightArm  19.566 -22.678 34.7388
RightForeArm  9.81416 16.6477 5.05336
RightHand  -0.301521 5.23147 -3.5826
LeftUpLeg  -27.8933 4.40027 9.41307
LeftLeg  49.6277 3.98664 5.39626
LeftFoot  8.90512 -0.313038 1.49678
LeftToes  1.28511e-009 -3.60458e-011 6.16399e-011
184
root  -40.9173 39.3588 -0.958507 179.284 -85.86 -176.689
RightUpLeg  -9.51599 -8.91189 -4.63471
RightLeg  21.8825 2.46976 0.719474
RightFoot  -15.0801 -0.0118677 2.76701
RightToes  -3.31784e-009 0 -3.6325e-017
Spine  23.1807 0.052058 11.3345
Spine1  4.33189 2.68145 -1.84468
HEad  -30.3937 6.18133 -17.2404
LeftShoulder1  -0.495 4.79211 -32.2707
LeftArm  0.786574 28.2366 -32.6858
LeftForeArm  28.9405 -13.2378 -7.17107
LeftHand  -0.165389 10.5292 -2.33159
RightShoulder  -0.970237 -6.21452 29.215
RightArm  19.6359 -22.6182 33.6313
RightForeArm  12.0819 14.7807 5.5508
RightHand  -0.351429 5.68256 -3.75829
LeftUpLeg  -29.6325 4.28866 8.84757
LeftLeg  52.2636 0.725246 1.5112
LeftFoot  5.60147 -0.350955 2.0724
LeftToes  1.28511e-009 -3.60458e-011 6.16399e-011
185
root  -41.657 39.3807 -1.02514 178.628 -86.027 -176.336
RightUpLeg  -7.32715 -9.5082 -4.89812
RightLeg  20.8385 2.92579 0.857316
RightFoot  -15.6614 -0.0082836 2.59315
RightToes  -3.31784e-009 0 -3.6325e-017
Spine  21.4134 0.31755 11.7945
Spine1  4.51086 2.9367 -2.34117
HEad  -29.0649 2.04216 -21.8878
LeftShoulder1  -0.828468 5.61099 -33.1478
LeftArm  -2.23339 29.432 -31.7254
LeftForeArm  29.2018 -11.7068 -6.97065
LeftHand  -0.126399 10.8103 -1.37326
RightShoulder  -1.0979 -6.51404 29.9531
RightArm  17.8429 -20.2658 33.173
RightForeArm  18.1691 11.4836 6.0659
RightHand  -0.0107387 2.92626 -0.43005
LeftUpLeg  -30.9981 5.16344 7.71323
LeftLeg  51.2096 0.089989 0.566371
LeftFoot  3.78779 -0.0811734 0.465222
LeftToes  1.28511e-009 -3.60458e-011 6.16399e-011
186
root  -42.3953 39.4282 -1.13301 179.909 -86.4714 -177.76
RightUpLeg  -5.09216 -9.69807 -5.14821
RightLeg  19.3669 2.75997 0.69098
RightFoot  -16.1094 -0.00229046 2.56048
RightToes  -3.31784e-009 0 -3.6325e-017
Spine  19.7892 0.773983 11.4661
Spine1  4.41059 3.07134 -2.24018
HEad  -27.2382 0.373034 -24.8677
LeftShoulder1  -0.958494 5.89631 -33.8882
LeftArm  -5.85321 29.971 -31.9123
LeftForeArm  29.5834 -10.064 -6.2361
LeftHand  -0.159861 10.5039 -2.20455
RightShoulder  -1.11461 -6.54362 30.1238
RightArm  14.5087 -17.6638 33.731
RightForeArm  18.973 8.18959 5.97882
RightHand  -0.157242 3.46793 -2.26832
LeftUpLeg  -31.8718 7.02123 6.11174
LeftLeg  46.7664 0.902769 1.41828
LeftFoot  2.63092 -0.173232 1.28242
LeftToes  1.28511e-009 -3.60458e-011 6.16399e-011
187
root  -43.1521 39.4506 -1.19921 -177.604 -87.194 179.632
RightUpLeg  -2.75444 -10.0667 -5.57047
RightLeg  17.8397 2.593 0.633757
RightFoot  -16.6214 0.0188846 2.85246
RightToes  -3.31784e-009 0 -3.6325e-017
Spine  18.1607 0.900251 11.4324
Spine1  4.63874 3.14031 -3.10493
HEad  -25.5663 1.46485 -25.4059
LeftShoulder1  -0.920888 5.82393 -33.5155
LeftArm  -7.44462 29.6927 -33.0781
LeftForeArm  28.9112 -8.81307 -5.86854
LeftHand  -0.122819 9.94982 -1.66313
RightShoulder  -1.22227 -6.786 30.7308
RightArm  12.3795 -14.3984 34.6319
RightForeArm  18.3144 6.43453 5.44611
RightHand  -0.0966395 2.77695 -1.35741
LeftUpLeg  -32.1463 8.78687 4.23343
LeftLeg  39.9339 2.60148 2.68928
LeftFoot  1.07778 -0.173926 1.53776
LeftToes  1.28511e-009 -3.60458e-011 6.16399e-011
188
root  -43.9409 39.4918 -1.24093 -170.479 -87.8466 172.545
RightUpLeg  -0.31653 -10.2696 -6.08535
RightLeg  15.7921 2.23927 0.514845
RightFoot  -16.8997 0.035636 3.09218
RightToes  -3.31784e-009 0 -3.6325e-017
Spine  16.6198 1.14599 10.8436
Spine1  4.83313 3.22285 -3.62606
HEad  -24.5209 2.71831 -25.9428
LeftShoulder1  -0.906462 5.7773 -33.6788
LeftArm  -7.56652 28.9793 -33.916
LeftForeArm  29.5481 -9.17686 -5.86747
LeftHand  -0.149456 10.227 -2.13788
RightShoulder  -1.18977 -6.74715 30.1699
RightArm  10.198 -12.2721 36.4013
RightForeArm  13.0343 7.50114 5.02093
RightHand  -0.376307 4.22147 -4.84297
LeftUpLeg  -31.6723 10.5674 2.05149
LeftLeg  31.0744 4.23306 3.10184
LeftFoot  0.397499 -0.153558 1.4734
LeftToes  1.28511e-009 -3.60458e-011 6.16399e-011
189
root  -44.7831 39.4979 -1.22976 -163.013 -88.144 165.016
RightUpLeg  2.29421 -10.312 -6.61271
RightLeg  13.6563 2.01962 0.361915
RightFoot  -17.1531 0.0645949 3.55907
RightToes  -3.31784e-009 0 -3.6325e-017
Spine  15.4078 1.29774 10.5954
Spine1  5.06562 3.56987 -5.08181
HEad  -23.4745 3.18378 -25.2344
LeftShoulder1  -0.844927 5.66822 -32.8726
LeftArm  -7.16003 28.1708 -35.415
LeftForeArm  29.9981 -10.732 -5.92781
LeftHand  -0.165716 10.1988 -2.5348
RightShoulder  -1.25132 -6.8964 30.3828
RightArm  10.412 -9.35069 37.4032
RightForeArm  11.6045 10.0026 5.08944
RightHand  -0.107729 4.60265 -1.50955
LeftUpLeg  -30.7318 12.8107 -0.233658
LeftLeg  21.9393 4.75691 2.50916
LeftFoot  1.10489 -0.0666607 0.55524
LeftToes  1.28511e-009 -3.60458e-011 6.16399e-011
190
root  -45.6934 39.4311 -1.167 -165.718 -88.2896 168.131
RightUpLeg  4.37461 -10.1079 -6.75545
RightLeg  11.6769 1.78336 0.174806
RightFoot  -17.5549 0.105024 4.12861
RightToes  -3.31784e-009 0 -3.6325e-017
Spine  13.928 1.54693 10.3377
Spine1  5.06722 3.87578 -5.96974
HEad  -23.0388 4.00497 -24.8988
LeftShoulder1  -0.914688 5.82791 -33.1824
LeftArm  -5.03973 26.6785 -35.7905
LeftForeArm  28.7048 -12.8593 -6.00302
LeftHand  -0.136826 9.60351 -2.20933
RightShoulder  -1.20331 -6.80138 29.9816
RightArm  13.1485 -6.60281 38.9082
RightForeArm  9.29269 13.5821 5.29029
RightHand  -0.227667 5.35377 -2.73934
LeftUpLeg  -30.252 13.863 -1.55
LeftLeg  14.2527 5.67819 1.48882
LeftFoot  1.66039 -0.00286416 -0.068475
LeftToes  1.28511e-009 -3.60458e-011 6.16399e-011
191
root  -46.7219 39.2559 -1.04328 -178.576 -88.4461 -178.78
RightUpLeg  6.57874 -10.0402 -6.83241
RightLeg  10.3108 1.77565 0.0917296
RightFoot  -18.2944 0.144305 4.4136
RightToes  -3.31784e-009 0 -3.6325e-017
Spine  12.5283 1.68593 10.4378
Spine1  4.97307 4.12841 -6.87879
HEad  -23.1498 4.96151 -24.5562
LeftShoulder1  -0.924139 5.84399 -33.3098
LeftArm  -2.41217 25.2677 -36.4758
LeftForeArm  25.5623 -15.5812 -5.61684
LeftHand  -0.114838 9.75307 -1.55771
RightShoulder  -1.14469 -6.67994 29.5261
RightArm  16.7733 -3.89061 40.6753
RightForeArm  8.86039 17.7068 4.85542
RightHand  -0.0939949 3.62715 -1.48556
LeftUpLeg  -29.6664 10.8971 -0.0500466
LeftLeg  10.198 11.2333 0.531877
LeftFoot  0.947206 -0.0227018 0.162796
LeftToes  1.28511e-009 -3.60458e-011 6.16399e-011
192
root  -47.8875 38.9788 -0.86122 -177.622 -88.327 179.699
RightUpLeg  9.57736 -10.2638 -7.73425
RightLeg  9.57315 2.41522 -0.102731
RightFoot  -19.6242 0.225701 4.94653
RightToes  -3.31784e-009 0 -3.6325e-017
Spine  11.6291 1.9353 10.3184
Spine1  5.3751 4.64636 -8.0631
HEad  -23.1136 5.87114 -23.6742
LeftShoulder1  -0.857828 5.70129 -32.87
LeftArm  -0.909535 23.3449 -37.6452
LeftForeArm  23.0242 -18.0915 -4.84587
LeftHand  -0.122014 9.69943 -1.77662
RightShoulder  -1.11897 -6.63937 29.1928
RightArm  17.8606 -1.49569 42.6566
RightForeArm  8.27944 21.846 4.48717
RightHand  -0.175258 4.12131 -2.40429
LeftUpLeg  -29.1714 10.4392 -0.457433
LeftLeg  10.2278 13.5362 0.819227
LeftFoot  0.645984 -0.13667 1.31768
LeftToes  1.28511e-009 -3.60458e-011 6.16399e-011
193
root  -49.1448 38.5884 -0.638056 168.889 -88.2297 -167.005
RightUpLeg  12.1156 -10.0541 -8.00431
RightLeg  9.23704 2.41838 -0.557456
RightFoot  -21.2434 0.359178 5.81085
RightToes  -3.31784e-009 0 -3.6325e-017
Spine  10.4264 2.23083 10.1977
Spine1  5.419 4.98722 -8.51267
HEad  -22.9924 6.56693 -22.6604
LeftShoulder1  -0.872921 5.71555 -33.3107
LeftArm  1.77856 21.1025 -37.6845
LeftForeArm  20.7009 -20.7941 -4.24036
LeftHand  -0.0832703 9.23019 -0.897884
RightShoulder  -0.971258 -6.28502 28.1981
RightArm  15.7283 -0.157142 44.7695
RightForeArm  9.90169 26.0431 5.03933
RightHand  -0.241961 5.48027 -2.9053
LeftUpLeg  -30.3573 12.9073 -2.43711
LeftLeg  14.2259 9.96924 2.38246
LeftFoot  2.06488 -0.464907 3.55095
LeftToes  1.28511e-009 -3.60458e-011 6.16399e-011
194
root  -50.4992 38.178 -0.375243 -167.277 -88.0742 168.493
RightUpLeg  15.144 -10.2609 -9.8931
RightLeg  9.34791 3.06462 -1.01157
RightFoot  -23.0349 0.568226 7.04407
RightToes  -3.31784e-009 0 -3.6325e-017
Spine  9.86545 2.97063 7.96322
Spine1  4.8229 5.25043 -7.12831
HEad  -22.3153 6.78889 -22.3331
LeftShoulder1  -0.888997 5.63139 -35.5738
LeftArm  4.25786 18.6716 -36.1161
LeftForeArm  18.9308 -23.5611 -4.04724
LeftHand  -0.0126263 8.64474 1.11036
RightShoulder  -0.617222 -5.44454 25.2072
RightArm  12.3241 -0.785761 47.7211
RightForeArm  12.2241 29.9755 5.85504
RightHand  -0.26648 5.28742 -3.18717
LeftUpLeg  -31.2254 13.0629 -4.10601
LeftLeg  19.7482 8.62105 3.85684
LeftFoot  5.75942 -1.20886 7.89908
LeftToes  1.28511e-009 -3.60458e-011 6.16399e-011
